<?xml version="1.0" encoding="utf-8"?>
<!-- Generator: Adobe Illustrator 21.1.0, SVG Export Plug-In . SVG Version: 6.00 Build 0)  -->
<svg version="1.1" id="Layer_1" xmlns="http://www.w3.org/2000/svg" xmlns:xlink="http://www.w3.org/1999/xlink" x="0px" y="0px"
	 viewBox="0 0 543.3 719.5" style="enable-background:new 0 0 543.3 719.5;" xml:space="preserve">
<style type="text/css">
	.st0{fill:url(#SVGID_1_);}
	.st1{opacity:0.15;}
</style>
<g>
	<linearGradient id="SVGID_1_" gradientUnits="userSpaceOnUse" x1="545.9839" y1="4.4635" x2="227.8627" y2="555.4657">
		<stop  offset="0" style="stop-color:#29B6F6"/>
		<stop  offset="1" style="stop-color:#512DA8"/>
	</linearGradient>
	<path class="st0" d="M134.2,292.1C92.6,271.3,49.3,256.5,5.9,251c-6.9-0.9-8.1-10.5-1.7-13.1c75.7-31.4,143.5-35.9,201.6-17.4
		c6,1.9,12,4.1,17.8,6.5l-73.5,73.5C144.9,297.5,139.6,294.8,134.2,292.1z M536.4,0h-58.8c-1.8,0-3.6,0.7-4.8,2l-272.1,272
		L35.5,439.4c-2.2,2.2-0.6,6,2.5,5.8c48.1-2,149.1-20.5,231.2-102.6l272-272c1.3-1.3,2-3.1,2-4.8V6.9C543.3,3.1,540.2,0,536.4,0z
		 M531.6,104.5l-83.2,83.1c-1.3,1.3-2,3.1-2,4.8v64.7v225.2c0,116.1,58.3,200.6,91,236c2.1,2.3,5.9,0.8,5.9-2.3V131.9v-22.6
		C543.3,103.2,536,100.2,531.6,104.5z M414.1,527c-11.1-61.9-28.6-116-51.7-161.2v0c-5-9.8-10.2-19.1-15.7-28
		c-3.1-5-6.2-9.8-9.5-14.7c-3.3-4.8-6.7-9.5-10.2-14.1l-45.6,45.7c-7.4,7.3-14.9,14.1-22.4,20.5c4.4,3.7,8.8,7.5,13.2,11.3
		c4.3,3.8,8.6,7.6,12.8,11.5c10.4,9.5,20.4,19.2,30,28.9c34.4,34.8,63.9,71.1,86.7,105C405.8,538.2,415.4,534.2,414.1,527z"/>
	<path class="st1" d="M543.3,109.3v22.6l-96.9,125.2v-64.7c0-1.8,0.7-3.5,2-4.8l83.2-83.1C536,100.2,543.3,103.2,543.3,109.3z
		 M346.7,337.8c-3.1-5-6.2-9.8-9.5-14.7c-3.3-4.8-6.7-9.5-10.2-14.1l-45.6,45.7c-7.4,7.3-14.9,14.1-22.4,20.5
		c4.4,3.7,8.8,7.5,13.2,11.3c4.3,3.8,8.6,7.6,12.8,11.5c10.4,9.5,20.4,19.2,30,28.9l47.4-61.3C357.4,356,352.2,346.7,346.7,337.8z"
		/>
</g>
</svg>
